<svg width="334" height="118" viewBox="0 0 334 118" fill="none" xmlns="http://www.w3.org/2000/svg">
<g clip-path="url(#clip0_30_175)">
<rect width="334" height="118" rx="30" fill="#42C83C"/>
<path fill-rule="evenodd" clip-rule="evenodd" d="M334.516 -61.6635C327.755 -54.9191 319.36 -45.6737 316.702 -35.1802C315.871 -31.901 315.6 -28.4986 316.113 -25.0129C315.553 -22.5455 315.316 -20.0106 315.496 -17.4251C315.429 -17.1865 315.365 -16.9472 315.304 -16.7073C314.832 -14.8432 314.541 -12.9393 314.472 -11.0028C314.153 -10.0971 313.873 -9.18081 313.639 -8.25481C313.569 -7.97766 313.502 -7.69964 313.44 -7.42076C307.277 -0.994805 300.58 7.21779 298.258 16.3824C296.927 21.6383 297.033 27.211 299.503 32.9354C301.972 38.6571 306.794 44.5081 314.854 50.338C333.631 63.9195 351.102 64.6009 364.506 65.1236C365.751 65.1721 366.96 65.2193 368.133 65.2753C375.053 65.606 380.594 66.2445 384.45 69.1875C388.286 72.115 390.528 77.3906 390.641 87.1987L391.23 87.2126C391.117 77.3553 388.866 71.8574 384.812 68.763C380.778 65.684 375.033 65.052 368.142 64.7227C366.967 64.6666 365.757 64.6193 364.513 64.5706C351.115 64.0468 333.821 63.3705 315.202 49.904C307.206 44.1198 302.466 38.3467 300.048 32.7435C297.631 27.1429 297.524 21.69 298.831 16.5287C301.038 7.81849 307.27 -0.0502673 313.223 -6.34749L313.217 -6.31736C313.066 -5.98484 312.919 -5.65068 312.777 -5.31491C308.671 -0.207536 305.04 5.61082 303.454 11.8738C302.122 17.1297 302.228 22.7024 304.699 28.4267C307.168 34.1484 311.989 39.9994 320.049 45.8293C338.827 59.4109 356.298 60.0922 369.701 60.615C370.946 60.6635 372.156 60.7107 373.328 60.7667C380.248 61.0973 385.79 61.7358 389.646 64.6788C393.481 67.6064 395.724 72.8819 395.837 82.6901L396.426 82.704C396.312 72.8467 394.061 67.3488 390.007 64.2544C385.973 61.1754 380.229 60.5433 373.337 60.2141C372.163 60.158 370.953 60.1106 369.709 60.062C356.311 59.5381 339.016 58.8619 320.398 45.3954C312.401 39.6112 307.661 33.8381 305.243 28.2349C302.826 22.6343 302.719 17.1814 304.027 12.0201C305.326 6.8944 308.018 2.06012 311.227 -2.33401C309.732 0.396816 308.527 3.25478 307.778 6.21189C306.447 11.4678 306.553 17.0405 309.023 22.7648C311.492 28.4865 316.314 34.3375 324.374 40.1674C343.151 53.749 360.622 54.4303 374.026 54.9531L374.027 54.9531L374.027 54.9531L374.032 54.9533L374.035 54.9534C375.277 55.0019 376.483 55.0489 377.653 55.1048C384.573 55.4354 390.114 56.0739 393.97 59.0169C397.806 61.9445 400.048 67.22 400.161 77.0282L400.75 77.0421C400.637 67.1848 398.386 61.6869 394.332 58.5925C390.298 55.5135 384.553 54.8814 377.662 54.5522C376.487 54.4961 375.277 54.4487 374.033 54.4001C360.635 53.8762 343.341 53.2 324.723 39.7335C316.726 33.9493 311.986 28.1762 309.568 22.573C307.151 16.9724 307.044 11.5195 308.351 6.3582C309.027 3.69017 310.081 1.1011 311.389 -1.38804C311.31 -1.10971 311.234 -0.830471 311.163 -0.550343C309.832 4.70553 309.938 10.2783 312.408 16.0026C314.878 21.7243 319.699 27.5753 327.759 33.4052C346.536 46.9868 364.007 47.6681 377.411 48.1908L377.413 48.1909C378.657 48.2394 379.866 48.2866 381.038 48.3426C387.958 48.6732 393.5 49.3117 397.356 52.2547C401.191 55.1823 403.434 60.4578 403.547 70.2659L404.136 70.2799C404.022 60.4225 401.771 54.9247 397.717 51.8302C393.683 48.7513 387.939 48.1192 381.047 47.7899C379.872 47.7338 378.662 47.6865 377.419 47.6379C364.021 47.114 346.726 46.4378 328.108 32.9713C320.111 27.1871 315.371 21.414 312.953 15.8107C310.536 10.2102 310.429 4.75723 311.737 -0.404034C312.049 -1.63723 312.442 -2.85355 312.904 -4.05095C312.526 -0.0611734 313.062 4.07727 314.884 8.29815C317.353 14.0198 322.174 19.8708 330.234 25.7007C349.012 39.2823 366.483 39.9636 379.887 40.4864C381.131 40.5349 382.341 40.5821 383.513 40.6381C390.434 40.9687 395.975 41.6072 399.831 44.5503C403.666 47.4778 405.909 52.7533 406.022 62.5615L406.611 62.5754C406.497 52.7181 404.246 47.2202 400.192 44.1258C396.158 41.0468 390.414 40.4147 383.522 40.0855C382.348 40.0294 381.138 39.982 379.894 39.9334C366.496 39.4096 349.201 38.7333 330.583 25.2668C322.586 19.4826 317.847 13.7095 315.428 8.10627C313.458 3.54022 313.023 -0.927705 313.638 -5.21945C313.889 -5.60671 314.144 -5.99103 314.405 -6.37233C314.5 -6.48578 314.596 -6.59888 314.691 -6.71159C314.993 -4.55483 315.595 -2.36592 316.549 -0.154374C319.019 5.56731 323.84 11.4183 331.9 17.2482C350.677 30.8298 368.148 31.5111 381.552 32.0339C382.797 32.0824 384.007 32.1296 385.179 32.1856C392.099 32.5162 397.641 33.1547 401.497 36.0977C405.332 39.0253 407.575 44.3008 407.688 54.109L408.277 54.1229C408.163 44.2656 405.912 38.7677 401.858 35.6733C397.824 32.5943 392.08 31.9622 385.188 31.633C384.013 31.5768 382.803 31.5295 381.56 31.4809C368.162 30.957 350.867 30.2808 332.249 16.8143C324.252 11.0301 319.512 5.25697 317.094 -0.346245C316.079 -2.69739 315.472 -5.02251 315.205 -7.31096C315.906 -8.12082 316.613 -8.91048 317.32 -9.67874C317.388 -9.51162 317.458 -9.34437 317.531 -9.17699C320 -3.45531 324.821 2.39571 332.881 8.22558C351.658 21.8072 369.13 22.4885 382.533 23.0112L382.536 23.0113L382.539 23.0114L382.544 23.0116L382.549 23.0118C383.789 23.0602 384.993 23.1072 386.16 23.163C393.08 23.4936 398.622 24.1321 402.478 27.0751C406.313 30.0027 408.556 35.2782 408.669 45.0864L409.258 45.1003C409.144 35.2429 406.893 29.7451 402.839 26.6506C398.805 23.5717 393.061 22.9396 386.169 22.6103C384.995 22.5542 383.784 22.5069 382.541 22.4583C369.143 21.9344 351.848 21.2582 333.23 7.79167C325.233 2.00747 320.493 -3.76565 318.075 -9.36887C317.963 -9.62873 317.856 -9.88828 317.754 -10.1475C318.804 -11.2761 319.85 -12.3569 320.87 -13.3859C323.641 -9.35581 327.684 -5.2851 333.298 -1.22464C352.075 12.357 369.546 13.0383 382.95 13.561C384.194 13.6096 385.404 13.6567 386.576 13.7127C393.497 14.0434 399.038 14.6819 402.894 17.6249C406.729 20.5524 408.972 25.828 409.085 35.6361L409.674 35.65C409.56 25.7927 407.309 20.2948 403.255 17.2004C399.221 14.1214 393.477 13.4894 386.585 13.1601C385.411 13.104 384.201 13.0567 382.957 13.0081C369.559 12.4842 352.264 11.8079 333.646 -1.65856C328.019 -5.72842 324.005 -9.79279 321.278 -13.7964L321.462 -13.9815L321.704 -14.2225L321.268 -14.6095C321.162 -14.5035 321.055 -14.3968 320.948 -14.2895C320.912 -14.3451 320.875 -14.4008 320.839 -14.4564C322.59 -16.4006 324.356 -18.2161 326.028 -19.8844L325.593 -20.2714C323.961 -18.6435 322.233 -16.8698 320.515 -14.9681C320.295 -15.3212 320.086 -15.6738 319.886 -16.0258C322.924 -19.9898 326.328 -23.5687 329.413 -26.6467L328.978 -27.0336C325.951 -24.0143 322.597 -20.4938 319.577 -16.5844C319.251 -17.1866 318.954 -17.7872 318.683 -18.3859C322.399 -24.5081 327.47 -29.9434 331.889 -34.3511L331.453 -34.7381C327.126 -30.4215 322.129 -25.0804 318.396 -19.0433C318.063 -19.8344 317.776 -20.6225 317.532 -21.4072C321.101 -29.7571 327.868 -37.1312 333.554 -42.8037L333.119 -43.1906C327.585 -37.6707 320.957 -30.4754 317.276 -22.2917C317.033 -23.1904 316.846 -24.0844 316.711 -24.9732C316.758 -25.1771 316.807 -25.3806 316.859 -25.5836C319.479 -35.9244 327.772 -45.0791 334.536 -51.8263L334.1 -52.2133C327.528 -45.657 319.411 -36.7372 316.521 -26.6049C316.287 -29.4822 316.582 -32.299 317.275 -35.0339C319.895 -45.3746 328.188 -54.5293 334.952 -61.2765L334.516 -61.6635ZM314.565 -7.74686C314.494 -7.60931 314.425 -7.47146 314.356 -7.33332C314.43 -7.43873 314.504 -7.5439 314.579 -7.64881L314.569 -7.75086L314.565 -7.74686ZM316.271 -9.92485C316.483 -10.1987 316.697 -10.4707 316.912 -10.7407C316.829 -10.9724 316.75 -11.2039 316.674 -11.435C316.291 -10.8284 315.922 -10.2149 315.567 -9.5946C315.736 -9.76488 315.905 -9.93365 316.073 -10.1009L316.271 -9.92485ZM320.538 -13.8775C319.927 -13.2614 319.304 -12.6257 318.676 -11.9715C319.261 -12.6676 319.852 -13.3497 320.446 -14.0171L320.506 -13.9258L320.538 -13.8775ZM320.118 -14.5269C319.907 -14.8621 319.705 -15.197 319.511 -15.5316C318.664 -14.4072 317.85 -13.2528 317.081 -12.0708C317.162 -11.8048 317.248 -11.5384 317.34 -11.2716C318.25 -12.3925 319.182 -13.4786 320.118 -14.5269ZM314.411 -8.72306L314.337 -8.58501C314.382 -8.75153 314.429 -8.91774 314.477 -9.08364C314.48 -9.0107 314.483 -8.93772 314.487 -8.8647L314.411 -8.72306ZM316.445 -12.1698C315.959 -11.4141 315.491 -10.6469 315.045 -9.86909C315.042 -10.2091 315.046 -10.5482 315.057 -10.8863C315.368 -11.7613 315.716 -12.6266 316.097 -13.4815C316.2 -13.0454 316.316 -12.6081 316.445 -12.1698ZM319.196 -16.0872C318.389 -15.0235 317.608 -13.9319 316.867 -12.8145C316.726 -13.331 316.605 -13.846 316.501 -14.3594C317.054 -15.5232 317.666 -16.6667 318.326 -17.7878C318.592 -17.2221 318.882 -16.6552 319.196 -16.0872ZM318.028 -18.4399C318.001 -18.5023 317.974 -18.5648 317.947 -18.6272C317.665 -19.2809 317.413 -19.9326 317.192 -20.5821C316.768 -19.5202 316.398 -18.4431 316.09 -17.3523C316.139 -16.6851 316.216 -16.0146 316.323 -15.341C316.849 -16.392 317.42 -17.4255 318.028 -18.4399ZM315.889 -14.4449C315.806 -14.8681 315.735 -15.2901 315.676 -15.7109C315.471 -14.7852 315.312 -13.8505 315.205 -12.9075C315.421 -13.4238 315.649 -13.9363 315.889 -14.4449ZM316.911 -21.4545C316.588 -20.689 316.292 -19.9151 316.026 -19.1334C316.027 -20.583 316.158 -22.0157 316.4 -23.4287C316.541 -22.7732 316.711 -22.1151 316.911 -21.4545ZM292.347 19.8258C295.006 9.33223 303.401 0.0868259 310.162 -6.65754L310.597 -6.27056C303.833 0.476598 295.54 9.63133 292.92 19.9721C291.613 25.1333 291.72 30.5863 294.137 36.1868C296.555 41.7901 301.295 47.5632 309.292 53.3474C327.91 66.8139 345.204 67.4901 358.602 68.014C359.846 68.0626 361.056 68.1099 362.231 68.166C369.122 68.4953 374.867 69.1274 378.901 72.2064C382.955 75.3008 385.206 80.7986 385.319 90.656L384.731 90.642C384.617 80.8339 382.375 75.5584 378.539 72.6308C374.684 69.6878 369.142 69.0493 362.222 68.7187C361.049 68.6627 359.84 68.6155 358.595 68.5669C345.191 68.0442 327.72 67.3629 308.943 53.7813C300.883 47.9514 296.061 42.1004 293.592 36.3787C291.122 30.6544 291.016 25.0816 292.347 19.8258ZM303.726 -4.08031C296.965 2.66406 288.57 11.9095 285.912 22.403C284.58 27.6589 284.686 33.2316 287.156 38.9559C289.626 44.6776 294.447 50.5287 302.507 56.3585C321.284 69.9401 338.755 70.6214 352.159 71.1442L352.159 71.1442C353.404 71.1927 354.614 71.2399 355.786 71.2959C362.706 71.6265 368.248 72.265 372.104 75.208C375.939 78.1356 378.182 83.4111 378.295 93.2193L378.884 93.2332C378.77 83.3759 376.519 77.878 372.465 74.7836C368.431 71.7046 362.687 71.0725 355.795 70.7433C354.621 70.6872 353.41 70.6398 352.167 70.5912C338.769 70.0674 321.474 69.3911 302.856 55.9246C294.859 50.1404 290.119 44.3673 287.701 38.7641C285.284 33.1635 285.177 27.7106 286.485 22.5493C289.105 12.2086 297.398 3.05383 304.162 -3.69333L303.726 -4.08031ZM279.127 24.3579C281.786 13.8644 290.181 4.61897 296.942 -2.1254L297.377 -1.73842C290.613 5.00874 282.32 14.1635 279.7 24.5042C278.393 29.6655 278.5 35.1184 280.917 40.719C283.335 46.3222 288.075 52.0953 296.071 57.8795C314.689 71.346 331.984 72.0223 345.382 72.5461C346.626 72.5948 347.836 72.6421 349.01 72.6982C355.902 73.0274 361.647 73.6595 365.681 76.7385C369.735 79.8329 371.986 85.3308 372.099 95.1881L371.51 95.1742C371.397 85.3661 369.155 80.0905 365.319 77.163C361.463 74.2199 355.922 73.5814 349.002 73.2508C347.829 73.1948 346.62 73.1476 345.375 73.0991C331.971 72.5764 314.5 71.895 295.723 58.3134C287.663 52.4836 282.841 46.6325 280.372 40.9109C277.902 35.1865 277.795 29.6138 279.127 24.3579ZM289.952 -0.557702C283.191 6.18667 274.796 15.4321 272.138 25.9256C270.806 31.1815 270.912 36.7542 273.383 42.4786C275.852 48.2002 280.673 54.0513 288.734 59.8811C307.511 73.4627 324.982 74.1441 338.386 74.6668C339.63 74.7153 340.84 74.7625 342.012 74.8185C348.933 75.1491 354.474 75.7876 358.33 78.7307C362.165 81.6582 364.408 86.9337 364.521 96.7419L365.11 96.7558C364.996 86.8985 362.745 81.4006 358.691 78.3062C354.657 75.2272 348.913 74.5951 342.021 74.2659C340.847 74.2098 339.637 74.1625 338.393 74.1138C324.995 73.59 307.7 72.9137 289.082 59.4472C281.085 53.663 276.346 47.8899 273.927 42.2867C271.511 36.6861 271.403 31.2332 272.711 26.0719C275.331 15.7312 283.624 6.57644 290.388 -0.17072L289.952 -0.557702ZM265.051 27.3041C267.71 16.8106 276.105 7.56518 282.866 0.820812L283.301 1.20779C276.538 7.95495 268.244 17.1097 265.625 27.4504C264.317 32.6117 264.424 38.0646 266.841 43.6652C269.259 49.2684 273.999 55.0415 281.996 60.8257C300.614 74.2922 317.909 74.9685 331.307 75.4923C332.55 75.541 333.76 75.5883 334.935 75.6444C341.827 75.9737 347.571 76.6057 351.605 79.6847C355.659 82.7791 357.91 88.277 358.024 98.1343L357.435 98.1204C357.322 88.3123 355.079 83.0367 351.243 80.1092C347.388 77.1662 341.846 76.5276 334.926 76.197C333.754 76.141 332.544 76.0938 331.299 76.0453C317.895 75.5226 300.424 74.8412 281.647 61.2597C273.587 55.4298 268.765 49.5788 266.296 43.8571C263.826 38.1327 263.72 32.56 265.051 27.3041ZM275.764 2.16757C269.003 8.91193 260.608 18.1573 257.95 28.6509C256.618 33.9067 256.724 39.4795 259.195 45.2038C261.664 50.9255 266.485 56.7765 274.545 62.6064C293.323 76.188 310.794 76.8693 324.198 77.3921C325.442 77.4406 326.652 77.4878 327.824 77.5438C334.744 77.8744 340.286 78.5129 344.142 81.4559C347.977 84.3835 350.22 89.659 350.333 99.4672L350.922 99.4811C350.808 89.6238 348.557 84.1259 344.503 81.0315C340.469 77.9525 334.725 77.3204 327.833 76.9911C326.659 76.935 325.449 76.8877 324.205 76.8391C310.807 76.3152 293.512 75.639 274.894 62.1725C266.897 56.3883 262.158 50.6152 259.739 45.0119C257.323 39.4114 257.215 33.9584 258.523 28.7972C261.143 18.4564 269.436 9.3017 276.2 2.55455L275.764 2.16757ZM250.891 30.084C253.549 19.5904 261.944 10.345 268.705 3.60068L269.141 3.98766C262.377 10.7348 254.084 19.8896 251.464 30.2303C250.156 35.3916 250.264 40.8445 252.68 46.4451C255.099 52.0483 259.838 57.8214 267.835 63.6056C286.453 77.0721 303.748 77.7483 317.146 78.2722C318.39 78.3208 319.6 78.3682 320.774 78.4243C327.666 78.7535 333.41 79.3856 337.444 82.4646C341.498 85.559 343.749 91.0569 343.863 100.914L343.274 100.9C343.161 91.0921 340.918 85.8166 337.083 82.889C333.227 79.946 327.686 79.3075 320.765 78.9769C319.593 78.9209 318.383 78.8737 317.139 78.8252C303.735 78.3024 286.264 77.6211 267.487 64.0395C259.426 58.2096 254.605 52.3586 252.136 46.6369C249.665 40.9126 249.559 35.3399 250.891 30.084ZM261.736 5.20689C254.975 11.9513 246.58 21.1967 243.921 31.6902C242.59 36.9461 242.696 42.5188 245.166 48.2431C247.636 53.9648 252.457 59.8158 260.517 65.6457C279.294 79.2273 296.765 79.9086 310.169 80.4314L310.169 80.4314C311.414 80.4799 312.624 80.5271 313.796 80.5831C320.716 80.9137 326.258 81.5522 330.114 84.4953C333.949 87.4228 336.192 92.6983 336.305 102.506L336.894 102.52C336.78 92.6631 334.529 87.1652 330.475 84.0708C326.441 80.9918 320.697 80.3597 313.805 80.0305C312.63 79.9744 311.42 79.927 310.177 79.8784C296.779 79.3546 279.484 78.6783 260.866 65.2118C252.869 59.4276 248.129 53.6545 245.711 48.0513C243.294 42.4507 243.187 36.9978 244.495 31.8365C247.115 21.4958 255.408 12.341 262.171 5.59387L261.736 5.20689ZM237.075 33.5295C239.734 23.036 248.129 13.7906 254.89 7.04624L255.325 7.43322C248.562 14.1804 240.268 23.3351 237.649 33.6759C236.341 38.8371 236.448 44.2901 238.865 49.8906C241.283 55.4938 246.023 61.267 254.02 67.0512C272.638 80.5177 289.933 81.1939 303.33 81.7178C304.574 81.7664 305.784 81.8137 306.959 81.8698C313.85 82.1991 319.595 82.8312 323.629 85.9101C327.683 89.0046 329.934 94.5024 330.048 104.36L329.459 104.346C329.346 94.5377 327.103 89.2622 323.267 86.3346C319.412 83.3916 313.87 82.7531 306.95 82.4225C305.778 82.3664 304.568 82.3193 303.323 82.2707L303.323 82.2707C289.919 81.748 272.448 81.0667 253.671 67.4851C245.611 61.6552 240.789 55.8042 238.32 50.0825C235.85 44.3582 235.744 38.7854 237.075 33.5295ZM248.191 9.15866C241.43 15.903 233.035 25.1484 230.377 35.642C229.045 40.8978 229.151 46.4706 231.622 52.1949C234.091 57.9166 238.912 63.7676 246.972 69.5975C265.749 83.1791 283.221 83.8604 296.624 84.3832L296.624 84.3831L296.624 84.3831C297.869 84.4317 299.079 84.4789 300.251 84.5349C307.171 84.8655 312.713 85.504 316.569 88.447C320.404 91.3746 322.647 96.6501 322.76 106.458L323.349 106.472C323.235 96.6148 320.984 91.117 316.93 88.0226C312.896 84.9436 307.152 84.3115 300.26 83.9822C299.086 83.9261 297.875 83.8788 296.632 83.8302C283.234 83.3063 265.939 82.6301 247.321 69.1636C239.324 63.3794 234.584 57.6063 232.166 52.003C229.749 46.4025 229.642 40.9495 230.95 35.7883C233.57 25.4475 241.863 16.2928 248.627 9.54564L248.191 9.15866Z" fill="url(#paint0_radial_30_175)" fill-opacity="0.58"/>
<path d="M20.82 25V19.41L24.52 25H25.5V17.77H24.52V23.36L20.82 17.77H19.84V25H20.82ZM29.1338 25.12C30.3438 25.12 31.1638 24.53 31.4038 23.48H30.5238C30.3638 24.04 29.8838 24.34 29.1538 24.34C28.2238 24.34 27.6838 23.77 27.6138 22.74L31.3937 22.73V22.38C31.3937 20.93 30.4838 19.97 29.0938 19.97C27.6738 19.97 26.7038 21.03 26.7038 22.56C26.7038 24.08 27.6938 25.12 29.1338 25.12ZM29.0938 20.76C29.9238 20.76 30.4538 21.3 30.4538 22.11H27.6338C27.7538 21.25 28.2738 20.76 29.0938 20.76ZM33.3277 25H34.2577L35.1077 22.39C35.2877 21.8 35.3777 21.48 35.4277 21.24C35.4777 21.51 35.5777 21.89 35.7377 22.38L36.5877 25H37.4777L39.1477 20.11H38.1677L37.3477 22.65C37.2077 23.08 37.1177 23.42 37.0377 23.81C36.9577 23.46 36.7977 22.89 36.7177 22.65L35.9077 20.11H34.9477L34.1277 22.65C34.0177 22.97 33.8877 23.38 33.8077 23.81C33.7177 23.38 33.6177 23.01 33.5077 22.65L32.6977 20.11H31.7277L33.3277 25ZM43.1478 25L43.7878 23.2H46.8278L47.4778 25H48.5078L45.8578 17.77H44.7678L42.1278 25H43.1478ZM45.1878 19.33C45.2378 19.18 45.2878 19.01 45.3078 18.91C45.3278 19.02 45.3778 19.19 45.4278 19.33L46.5378 22.35H44.0878L45.1878 19.33ZM50.2689 25V17.64H49.3289V25H50.2689ZM52.5027 25L52.5727 24.11C52.8927 24.78 53.5427 25.12 54.3127 25.12C55.7327 25.12 56.6127 24.06 56.6127 22.58C56.6127 21.07 55.7727 19.97 54.3727 19.97C53.5727 19.97 52.9127 20.31 52.5927 20.95V17.64H51.6527V25H52.5027ZM52.6027 22.54C52.6027 21.54 53.1827 20.82 54.1427 20.82C55.1027 20.82 55.6727 21.54 55.6727 22.54C55.6727 23.55 55.1027 24.27 54.1427 24.27C53.1827 24.27 52.6027 23.56 52.6027 22.54ZM60.9116 20.11V22.69C60.9116 23.74 60.4416 24.29 59.5816 24.29C58.8616 24.29 58.4116 23.89 58.4116 22.84V20.11H57.4716V23.15C57.4716 24.35 58.1116 25.12 59.2516 25.12C59.9716 25.12 60.6216 24.77 60.9016 24.26L61.0016 25H61.8416V20.11H60.9116ZM64.1454 25V22.1C64.1454 21.32 64.6154 20.83 65.3254 20.83C65.9854 20.83 66.4054 21.25 66.4054 22.02V25H67.3354V22.1C67.3354 21.32 67.8054 20.82 68.5154 20.82C69.1754 20.82 69.6054 21.26 69.6054 22.03V25H70.5254V21.8C70.5254 20.67 69.8454 19.97 68.7254 19.97C67.9654 19.97 67.3754 20.35 67.1454 20.96C66.8954 20.35 66.3554 19.97 65.5954 19.97C64.9054 19.97 64.3854 20.29 64.1354 20.75L64.0454 20.11H63.2054V25H64.1454Z" fill="#FBFBFB"/>
<path d="M19.663 82.567C19.663 81.7263 19.793 81.0157 20.053 80.435C20.3217 79.8543 20.6597 79.3863 21.067 79.031C21.483 78.6757 21.9423 78.42 22.445 78.264C22.9563 78.0993 23.4547 78.017 23.94 78.017C24.4253 78.017 24.9193 78.0863 25.422 78.225C25.9333 78.355 26.3927 78.5933 26.8 78.94C27.216 79.278 27.554 79.7417 27.814 80.331C28.0827 80.9203 28.217 81.67 28.217 82.58C28.217 83.4293 28.0827 84.1443 27.814 84.725C27.554 85.3057 27.216 85.778 26.8 86.142C26.3927 86.506 25.9333 86.7703 25.422 86.935C24.9193 87.091 24.4253 87.169 23.94 87.169C23.4547 87.169 22.9563 87.091 22.445 86.935C21.9423 86.779 21.483 86.5233 21.067 86.168C20.6597 85.8127 20.3217 85.3403 20.053 84.751C19.793 84.1617 19.663 83.4337 19.663 82.567ZM26.982 82.632C26.982 81.462 26.709 80.5737 26.163 79.967C25.6257 79.3603 24.902 79.057 23.992 79.057C23.5327 79.057 23.1123 79.1307 22.731 79.278C22.3583 79.4167 22.0333 79.629 21.756 79.915C21.4873 80.201 21.275 80.5607 21.119 80.994C20.9717 81.4187 20.898 81.9213 20.898 82.502C20.898 83.672 21.1667 84.569 21.704 85.193C22.25 85.817 22.978 86.129 23.888 86.129C24.3387 86.129 24.7547 86.0597 25.136 85.921C25.5173 85.7737 25.8423 85.5527 26.111 85.258C26.3883 84.9633 26.6007 84.5993 26.748 84.166C26.904 83.7327 26.982 83.2213 26.982 82.632ZM29.8 77.263L30.84 77.146V81.02C31.0306 80.89 31.23 80.7773 31.438 80.682C31.6113 80.5953 31.8063 80.5173 32.023 80.448C32.2396 80.37 32.4563 80.331 32.673 80.331C33.0283 80.331 33.362 80.4003 33.674 80.539C33.9946 80.6777 34.272 80.8857 34.506 81.163C34.7486 81.4403 34.9393 81.7913 35.078 82.216C35.2166 82.6407 35.286 83.1433 35.286 83.724C35.286 84.3653 35.195 84.907 35.013 85.349C34.8396 85.7823 34.6013 86.1333 34.298 86.402C34.0033 86.6707 33.6653 86.8657 33.284 86.987C32.9026 87.1083 32.5126 87.169 32.114 87.169C31.7153 87.169 31.3686 87.1387 31.074 87.078C30.788 87.026 30.5496 86.9653 30.359 86.896C30.1336 86.8093 29.9473 86.714 29.8 86.61V77.263ZM30.84 86.038C30.9526 86.0813 31.074 86.1203 31.204 86.155C31.334 86.181 31.4726 86.207 31.62 86.233C31.776 86.2503 31.9406 86.259 32.114 86.259C32.5126 86.259 32.8463 86.2027 33.115 86.09C33.3836 85.9773 33.596 85.8127 33.752 85.596C33.908 85.3793 34.0163 85.1193 34.077 84.816C34.1463 84.504 34.181 84.1573 34.181 83.776C34.181 83.4727 34.1463 83.1693 34.077 82.866C34.0163 82.5627 33.9166 82.294 33.778 82.06C33.6393 81.8173 33.466 81.6223 33.258 81.475C33.0586 81.319 32.8246 81.241 32.556 81.241C32.374 81.241 32.1833 81.28 31.984 81.358C31.7846 81.4273 31.5983 81.5097 31.425 81.605C31.2256 81.709 31.0306 81.826 30.84 81.956V86.038ZM36.8081 80.448L37.8481 80.331V87H36.8081V80.448ZM36.6391 78.589C36.6391 78.3897 36.7041 78.225 36.8341 78.095C36.9727 77.9563 37.1417 77.887 37.3411 77.887C37.5491 77.887 37.7224 77.9563 37.8611 78.095C38.0084 78.225 38.0821 78.3897 38.0821 78.589C38.0821 78.7883 38.0084 78.9573 37.8611 79.096C37.7224 79.226 37.5491 79.291 37.3411 79.291C37.1417 79.291 36.9727 79.226 36.8341 79.096C36.7041 78.9573 36.6391 78.7883 36.6391 78.589ZM41.2363 78.511V80.461H43.1213V81.306H41.2363V84.777C41.2363 85.063 41.2406 85.3013 41.2493 85.492C41.2666 85.6827 41.297 85.8343 41.3403 85.947C41.3836 86.0597 41.4443 86.142 41.5223 86.194C41.6003 86.2373 41.7 86.259 41.8213 86.259C42.1506 86.2503 42.532 86.129 42.9653 85.895L43.2773 86.688C42.9913 86.8787 42.7226 87.0043 42.4713 87.065C42.2286 87.1343 41.986 87.169 41.7433 87.169C41.1713 87.169 40.7683 87.0087 40.5343 86.688C40.309 86.3587 40.1963 85.817 40.1963 85.063V81.306H39.0003V80.461H40.1963V78.641L41.2363 78.511ZM45.1409 83.763C45.1409 84.6037 45.3272 85.232 45.6999 85.648C46.0812 86.0553 46.5925 86.259 47.2339 86.259C47.8665 86.259 48.3605 86.0553 48.7159 85.648C49.0712 85.2407 49.2489 84.6297 49.2489 83.815C49.2489 82.9483 49.0582 82.3027 48.6769 81.878C48.3042 81.4533 47.7929 81.241 47.1429 81.241C46.4929 81.241 45.9945 81.4533 45.6479 81.878C45.3099 82.294 45.1409 82.9223 45.1409 83.763ZM44.0359 83.75C44.0359 83.0913 44.1399 82.5453 44.3479 82.112C44.5559 81.67 44.8202 81.319 45.1409 81.059C45.4615 80.7903 45.8039 80.604 46.1679 80.5C46.5405 80.3873 46.8915 80.331 47.2209 80.331C47.5329 80.331 47.8709 80.383 48.2349 80.487C48.6075 80.5823 48.9499 80.76 49.2619 81.02C49.5739 81.2713 49.8339 81.6137 50.0419 82.047C50.2499 82.4717 50.3539 83.0133 50.3539 83.672C50.3539 84.3567 50.2455 84.9243 50.0289 85.375C49.8209 85.8257 49.5565 86.1853 49.2359 86.454C48.9152 86.714 48.5685 86.896 48.1959 87C47.8232 87.1127 47.4765 87.169 47.1559 87.169C46.8265 87.169 46.4799 87.117 46.1159 87.013C45.7519 86.909 45.4139 86.7313 45.1019 86.48C44.7985 86.22 44.5429 85.869 44.3349 85.427C44.1355 84.985 44.0359 84.426 44.0359 83.75Z" fill="#FBFBFB"/>
<path d="M20.3916 47.207V41.7334H25.2158C29.6071 41.7334 31.8027 43.8239 31.8027 48.0049C31.8027 52.6683 29.6071 55 25.2158 55H20.3916V49.3408H18.5361V47.207H20.3916ZM22.8501 47.207H25.4941V49.3408H22.8501V52.8662H25.2158C27.9681 52.8662 29.3442 51.2458 29.3442 48.0049C29.3442 45.2464 27.9681 43.8672 25.2158 43.8672H22.8501V47.207ZM33.2036 51.9663C33.2036 50.0304 34.6138 49.0625 37.4341 49.0625C38.0959 49.0625 38.7576 49.1243 39.4194 49.248V48.5151C39.4194 47.6431 38.7917 47.207 37.5361 47.207C36.4723 47.207 35.291 47.3617 33.9922 47.6709V45.7227C35.291 45.4134 36.4723 45.2588 37.5361 45.2588C40.4307 45.2588 41.8779 46.3288 41.8779 48.4688V55H40.4492L39.5771 54.1279C38.7298 54.7093 37.7959 55 36.7754 55C34.3942 55 33.2036 53.9888 33.2036 51.9663ZM39.4194 50.918C38.8009 50.7943 38.1392 50.7324 37.4341 50.7324C36.2528 50.7324 35.6621 51.1344 35.6621 51.9385C35.6621 52.8044 36.1569 53.2373 37.1465 53.2373C37.9629 53.2373 38.7205 52.9837 39.4194 52.4766V50.918ZM37.5361 41.7334H40.4956L38.2783 44.1362H36.2002L37.5361 41.7334ZM44.2065 55V45.2588H46.1084L46.4146 46.6875C47.3485 45.735 48.4123 45.2588 49.606 45.2588C51.9129 45.2588 53.0664 46.4587 53.0664 48.8584V55H50.6079V48.8584C50.6079 47.7822 50.0729 47.2441 49.0029 47.2441C48.2051 47.2441 47.4258 47.5627 46.665 48.1997V55H44.2065ZM55.395 55V41.7334H57.8535V46.502C58.6204 45.6732 59.6007 45.2588 60.7944 45.2588C63.1014 45.2588 64.2549 46.4587 64.2549 48.8584V55H61.7964V48.8584C61.7964 47.7822 61.2614 47.2441 60.1914 47.2441C59.3936 47.2441 58.6143 47.5627 57.8535 48.1997V55H55.395ZM70.9902 47.207V41.7334H75.8145C80.2057 41.7334 82.4014 43.8239 82.4014 48.0049C82.4014 52.6683 80.2057 55 75.8145 55H70.9902V49.3408H69.1348V47.207H70.9902ZM73.4487 47.207H76.0928V49.3408H73.4487V52.8662H75.8145C78.5667 52.8662 79.9429 51.2458 79.9429 48.0049C79.9429 45.2464 78.5667 43.8672 75.8145 43.8672H73.4487V47.207ZM90.3834 40.636C90.5861 40.9147 90.8014 41.2123 91.0294 41.529C91.2574 41.833 91.4854 42.137 91.7134 42.441C91.9541 42.7323 92.1758 42.9983 92.3784 43.239V43.486H90.8774C90.5608 43.2707 90.2378 43.0363 89.9084 42.783C89.5791 42.517 89.2498 42.2383 88.9204 41.947C88.5911 42.2383 88.2618 42.517 87.9324 42.783C87.6031 43.0363 87.2801 43.2707 86.9634 43.486H85.4624V43.239C85.6778 42.9983 85.8994 42.7323 86.1274 42.441C86.3554 42.137 86.5834 41.833 86.8114 41.529C87.0521 41.2123 87.2674 40.9147 87.4574 40.636H90.3834ZM92.3214 38.451C92.9041 38.451 93.3664 38.565 93.7084 38.793C94.0631 39.0083 94.2404 39.363 94.2404 39.857C94.2404 40.2117 94.1391 40.4967 93.9364 40.712C93.7338 40.9273 93.4488 41.073 93.0814 41.149L93.0244 41.719H91.8464L91.7514 40.636C92.1948 40.6107 92.4924 40.541 92.6444 40.427C92.7964 40.313 92.8724 40.1927 92.8724 40.066C92.8724 39.9267 92.8154 39.8127 92.7014 39.724C92.5874 39.6353 92.3974 39.591 92.1314 39.591C92.0048 39.591 91.8781 39.6037 91.7514 39.629C91.6248 39.6417 91.5298 39.6607 91.4664 39.686V38.508C91.5298 38.4827 91.6374 38.47 91.7894 38.47C91.9414 38.4573 92.1188 38.451 92.3214 38.451ZM94.0124 49.794C94.0124 50.6553 93.8921 51.4217 93.6514 52.093C93.4234 52.7643 93.0878 53.3343 92.6444 53.803C92.2138 54.259 91.6881 54.6073 91.0674 54.848C90.4468 55.076 89.7438 55.19 88.9584 55.19C88.2364 55.19 87.5651 55.076 86.9444 54.848C86.3364 54.6073 85.8108 54.259 85.3674 53.803C84.9241 53.3343 84.5758 52.7643 84.3224 52.093C84.0818 51.4217 83.9614 50.6553 83.9614 49.794C83.9614 48.6413 84.1641 47.6723 84.5694 46.887C84.9748 46.089 85.5574 45.481 86.3174 45.063C87.0774 44.645 87.9768 44.436 89.0154 44.436C89.9908 44.436 90.8521 44.645 91.5994 45.063C92.3468 45.481 92.9358 46.089 93.3664 46.887C93.7971 47.6723 94.0124 48.6413 94.0124 49.794ZM86.8494 49.794C86.8494 50.478 86.9191 51.0543 87.0584 51.523C87.2104 51.979 87.4448 52.3273 87.7614 52.568C88.0781 52.796 88.4898 52.91 88.9964 52.91C89.5031 52.91 89.9084 52.796 90.2124 52.568C90.5291 52.3273 90.7571 51.979 90.8964 51.523C91.0484 51.0543 91.1244 50.478 91.1244 49.794C91.1244 49.11 91.0484 48.54 90.8964 48.084C90.7571 47.628 90.5291 47.286 90.2124 47.058C89.8958 46.83 89.4841 46.716 88.9774 46.716C88.2301 46.716 87.6854 46.9757 87.3434 47.495C87.0141 48.0017 86.8494 48.768 86.8494 49.794ZM98.4883 41.7334V43.6816H96.0298V41.7334H98.4883ZM98.4883 45.2588V55H96.0298V45.2588H98.4883ZM103.507 41.7334V51.5674H101.049V41.7334H103.507ZM103.507 52.7271V55H101.049V52.7271H103.507Z" fill="#FBFBFB"/>
</g>
<defs>
<radialGradient id="paint0_radial_30_175" cx="0" cy="0" r="1" gradientUnits="userSpaceOnUse" gradientTransform="translate(307.981 40.641) rotate(44.6554) scale(82.2368 83.1472)">
<stop stop-color="white"/>
<stop offset="1" stop-color="#1E1E1E" stop-opacity="0"/>
<stop offset="1" stop-color="#0E0E35" stop-opacity="0"/>
<stop offset="1" stop-color="white" stop-opacity="0"/>
</radialGradient>
<clipPath id="clip0_30_175">
<rect width="334" height="118" rx="30" fill="white"/>
</clipPath>
</defs>
</svg>
